<svg version="1.1" id="Layer_1" xmlns="http://www.w3.org/2000/svg" xmlns:xlink="http://www.w3.org/1999/xlink" x="0px" y="0px"
	 width="100%" viewBox="0 0 500 500" enable-background="new 0 0 500 500" xml:space="preserve">
<path fill="#1E1E1E" opacity="1.000000" stroke="none" 
	d="
M235.000000,501.000000 
	C156.666687,501.000000 78.833374,501.000000 1.000042,501.000000 
	C1.000028,334.333405 1.000028,167.666779 1.000014,1.000131 
	C167.666565,1.000087 334.333130,1.000087 500.999756,1.000044 
	C500.999847,167.666519 500.999847,334.333038 500.999939,500.999786 
	C412.500000,501.000000 324.000000,501.000000 235.000000,501.000000 
M226.894867,126.742973 
	C226.789368,118.702339 224.123734,114.957710 218.576508,115.057510 
	C213.189163,115.154442 210.660049,118.823662 210.639328,126.573059 
	C210.638885,126.739487 210.641861,126.905907 210.641922,127.072334 
	C210.653763,169.178650 210.663177,211.284973 210.681488,253.391296 
	C210.682999,256.885345 210.552368,260.394653 210.828842,263.869385 
	C211.144226,267.832794 213.568085,270.280212 217.450317,270.886932 
	C221.569000,271.530640 224.726044,269.798157 226.121948,265.845245 
	C226.814880,263.883026 226.864441,261.623199 226.866379,259.497711 
	C226.906693,215.560745 226.898209,171.623703 226.894867,126.742973 
M45.009876,306.250153 
	C44.168846,307.663757 42.609501,309.070496 42.596001,310.491974 
	C42.429802,327.988373 42.481758,345.486938 42.509171,362.984894 
	C42.510918,364.099854 42.775024,365.214417 42.920143,366.353210 
	C46.939793,366.353210 50.682777,366.353210 54.922432,366.353210 
	C54.922432,360.608307 54.922432,355.186249 54.922432,349.464081 
	C60.570137,349.464081 65.728294,349.273956 70.856491,349.582245 
	C72.356033,349.672394 74.209221,350.852966 75.141968,352.100647 
	C78.027061,355.959869 80.437012,360.172150 83.274986,364.070038 
	C84.125954,365.238831 85.721970,366.447662 87.068604,366.562805 
	C90.958618,366.895416 94.895454,366.680359 99.883644,366.680359 
	C97.278214,362.826324 95.261681,359.858154 93.260757,356.879486 
	C91.170288,353.767517 89.094856,350.645386 87.003471,347.513672 
	C98.030823,341.119720 101.896973,333.466370 99.830910,322.636292 
	C98.076706,313.440948 91.180382,307.736145 78.884048,306.853546 
	C67.939392,306.067993 56.914494,306.400299 45.009876,306.250153 
M409.375854,356.449707 
	C409.375854,359.727997 409.375854,363.006256 409.375854,366.312683 
	C413.599426,366.312683 417.152893,366.312683 420.935455,366.312683 
	C420.935455,356.924927 420.733307,347.925079 421.088562,338.947327 
	C421.169525,336.901733 422.689423,334.204010 424.390015,333.064087 
	C429.567017,329.593842 435.406281,329.159088 440.972748,332.156403 
	C446.178070,334.959290 447.975677,339.936920 448.012817,345.610443 
	C448.058136,352.529633 448.023621,359.449310 448.023621,366.402496 
	C452.201569,366.402496 455.617340,366.402496 458.937256,366.402496 
	C458.937256,356.647064 459.591400,347.141296 458.747681,337.770416 
	C457.952881,328.943207 450.833588,322.788727 441.889801,320.967926 
	C432.014160,318.957428 423.116455,321.154999 415.129791,327.029938 
	C404.504578,318.138062 393.316681,318.847107 381.840149,324.149414 
	C379.009064,318.019348 373.867249,322.554352 369.710205,320.603973 
	C369.710205,336.344574 369.710205,351.254852 369.710205,366.357941 
	C373.550354,366.357941 377.100769,366.357941 380.967285,366.357941 
	C380.967285,357.198029 380.934357,348.383087 381.000488,339.568878 
	C381.011200,338.137756 380.944611,336.124512 381.792511,335.376678 
	C386.839264,330.925598 392.771423,329.292511 399.414612,330.999207 
	C404.689850,332.354523 408.461639,336.674622 409.001129,342.484039 
	C409.400604,346.786163 409.270233,351.137451 409.375854,356.449707 
M232.056244,174.500000 
	C232.055984,198.816635 232.043198,223.133286 232.064163,247.449905 
	C232.069458,253.592834 235.123215,257.536011 239.885620,257.727417 
	C244.978500,257.932129 248.296585,254.084381 248.303406,247.599548 
	C248.341675,211.124634 248.343887,174.649658 248.298660,138.174774 
	C248.290985,131.983002 245.050323,128.337006 240.052338,128.470840 
	C235.106873,128.603241 232.086609,132.335083 232.066376,138.524048 
	C232.028244,150.182587 232.055923,161.841339 232.056244,174.500000 
M237.030228,367.453583 
	C237.030228,352.065918 237.030228,336.678253 237.030228,321.297485 
	C233.353607,321.297485 229.917633,321.297485 226.039551,321.297485 
	C226.039551,329.480103 225.634003,337.456635 226.183121,345.366821 
	C226.545044,350.580658 224.081116,353.020294 219.975037,354.787537 
	C208.093063,359.901306 199.314148,354.393372 198.867264,341.512238 
	C198.734589,337.688293 198.808517,333.857025 198.797455,330.029114 
	C198.788986,327.105438 198.795776,324.181732 198.795776,321.304810 
	C194.603851,321.304810 191.162537,321.304810 187.989624,321.304810 
	C187.989624,331.147339 187.308502,340.799225 188.188507,350.306580 
	C189.006241,359.141235 195.582535,365.403473 204.425674,365.929382 
	C211.497879,366.350006 218.681549,364.896484 225.794205,364.276642 
	C226.134323,370.134796 223.292404,374.270142 216.465469,376.047516 
	C208.046570,378.239380 200.107498,376.311951 192.168381,372.573090 
	C190.733505,375.817780 189.432724,378.759216 187.484940,383.163727 
	C195.425537,384.531769 202.490524,386.534393 209.623596,386.816650 
	C225.133423,387.430420 233.261780,381.524567 237.030228,367.453583 
M205.202301,166.500122 
	C205.178726,160.013016 205.302704,153.520889 205.081573,147.040527 
	C204.924698,142.442596 201.308853,139.157043 197.031815,139.212982 
	C193.034485,139.265244 189.605606,142.517914 189.122604,146.774292 
	C189.010574,147.761688 189.048370,148.768173 189.048294,149.765884 
	C189.046204,178.544144 189.047318,207.322403 189.052002,236.100662 
	C189.052200,237.264816 188.981445,238.443573 189.133148,239.590485 
	C189.681900,243.738968 193.362335,246.998032 197.286255,246.900040 
	C201.462692,246.795731 204.688446,243.729691 205.095245,239.358566 
	C205.248932,237.707123 205.207184,236.034882 205.207428,234.372131 
	C205.210632,212.081451 205.205460,189.790771 205.202301,166.500122 
M311.023102,322.849335 
	C311.023102,316.254395 311.023102,309.659454 311.023102,303.105408 
	C306.876556,303.105408 303.317749,303.105408 299.914032,303.105408 
	C299.914032,324.417297 299.914032,345.346283 299.914032,366.436615 
	C303.637695,366.436615 307.061768,366.436615 311.000305,366.436615 
	C311.000305,357.096161 310.948730,347.988647 311.050812,338.882843 
	C311.067932,337.354889 311.242889,335.085175 312.207397,334.432190 
	C318.433685,330.216858 325.306152,328.596497 332.553680,331.442932 
	C339.230103,334.065063 341.208160,339.604248 341.074646,346.338348 
	C340.943634,352.945831 341.046112,359.557983 341.046112,366.423981 
	C344.988800,366.423981 348.410950,366.423981 352.435333,366.423981 
	C352.435333,358.847260 352.623688,351.393738 352.396698,343.952911 
	C351.901672,327.726990 341.296021,318.580505 325.099121,320.538513 
	C320.408905,321.105530 315.832886,322.616913 311.023102,322.849335 
M169.831451,366.020233 
	C169.882751,357.706665 170.291534,349.376068 169.896805,341.083740 
	C169.378464,330.195068 162.154160,321.953186 151.300873,321.036530 
	C143.953506,320.415924 136.425797,321.930634 128.711548,322.510376 
	C128.711548,316.796814 128.711548,310.015625 128.711548,303.133362 
	C124.687630,303.133362 120.997467,303.133362 117.458527,303.133362 
	C117.458527,324.445892 117.458527,345.342194 117.458527,366.314392 
	C121.340233,366.314392 124.886665,366.314392 128.751068,366.314392 
	C128.751068,356.791534 128.686798,347.653595 128.815613,338.518433 
	C128.836594,337.030548 129.252228,334.846069 130.266434,334.188965 
	C136.569153,330.105286 143.393555,328.634644 150.626694,331.654327 
	C157.400101,334.482178 158.780334,340.318695 158.798218,346.826843 
	C158.815964,353.286102 158.802094,359.745422 158.802094,366.581665 
	C162.535202,366.581665 165.818558,366.581665 169.831451,366.020233 
M267.858795,152.780289 
	C265.150299,149.933029 261.979919,149.184128 258.359344,150.786697 
	C254.633041,152.436096 253.631088,155.633118 253.630676,159.364166 
	C253.628922,175.657852 253.621582,191.951523 253.622192,208.245209 
	C253.622421,214.729218 253.452942,221.220306 253.700165,227.695206 
	C253.933868,233.816238 258.793640,237.491638 264.144287,235.752533 
	C268.580261,234.310730 269.994720,230.803131 269.986481,226.388092 
	C269.944916,204.109100 270.006012,181.829788 269.893524,159.551285 
	C269.883148,157.495956 268.903687,155.445526 267.858795,152.780289 
M296.652100,166.524078 
	C296.655090,185.974426 296.617859,205.424957 296.712219,224.874863 
	C296.723969,227.300644 296.901703,229.983643 297.935120,232.089905 
	C299.788391,235.867233 303.461334,236.906494 307.309387,235.727188 
	C311.491730,234.445480 313.009399,231.105118 313.000061,226.817566 
	C312.951233,204.375076 312.985138,181.932419 312.971039,159.489838 
	C312.970337,158.336426 313.010284,157.111237 312.658020,156.042496 
	C311.304749,151.936523 308.473907,149.645233 304.041718,150.071411 
	C299.898193,150.469864 297.331970,152.882034 296.893372,157.072403 
	C296.600433,159.871307 296.725647,162.713989 296.652100,166.524078 
M275.053223,192.500031 
	C275.052673,199.489380 274.979919,206.479721 275.074554,213.467789 
	C275.149078,218.970078 278.706512,222.875916 283.356934,222.830978 
	C287.935516,222.786728 291.397766,219.236069 291.457275,213.821945 
	C291.609070,200.011658 291.601196,186.197983 291.482147,172.387177 
	C291.435669,166.994598 288.025238,163.384323 283.461761,163.278000 
	C278.825256,163.169983 275.162354,167.098755 275.075836,172.529282 
	C274.975128,178.851379 275.052887,185.176346 275.053223,192.500031 
M263.024841,347.500488 
	C263.024841,353.759094 263.024841,360.017670 263.024841,366.298645 
	C267.184998,366.298645 270.710419,366.298645 274.689209,366.298645 
	C274.689209,353.985535 274.689209,342.084991 274.689209,329.774414 
	C278.401581,329.774414 281.657562,329.774414 285.183868,329.774414 
	C285.183868,326.652222 285.183868,323.958496 285.183868,320.905334 
	C281.522644,320.905334 278.243927,320.905334 274.497192,320.905334 
	C274.497192,316.138000 274.497192,311.718903 274.497192,307.279236 
	C270.448090,307.279236 266.879822,307.279236 262.871826,307.279236 
	C262.871826,311.982941 262.871826,316.393250 262.871826,321.258453 
	C259.021698,321.258453 255.618515,321.258453 252.386719,321.258453 
	C252.386719,324.328094 252.386719,326.897095 252.386719,329.809143 
	C255.999496,329.809143 259.267731,329.809143 263.024841,329.809143 
	C263.024841,335.609528 263.024841,341.055389 263.024841,347.500488 
M183.855225,192.490509 
	C183.834656,188.327133 183.946793,184.157776 183.759735,180.001892 
	C183.528870,174.872772 180.291748,171.621780 175.712143,171.593048 
	C171.168716,171.564545 167.846710,174.790939 167.712051,179.956024 
	C167.508148,187.777420 167.509308,195.609756 167.660843,203.432831 
	C167.757492,208.422287 171.218231,211.859451 175.657852,211.899261 
	C180.084610,211.938950 183.467773,208.551071 183.776398,203.470245 
	C183.978027,200.150848 183.840683,196.810852 183.855225,192.490509 
M318.173950,196.429138 
	C318.171265,198.585785 318.085846,200.746124 318.182251,202.898331 
	C318.421478,208.238800 321.663177,211.823196 326.223694,211.904953 
	C330.821747,211.987411 334.201172,208.480347 334.319092,203.109207 
	C334.464661,196.476639 334.455109,189.836655 334.328949,183.203384 
	C334.225220,177.749466 331.032562,174.259735 326.427277,174.191589 
	C321.747620,174.122314 318.323120,177.917496 318.185150,183.509109 
	C318.086945,187.488083 318.171173,191.471588 318.173950,196.429138 
z"/>
<path fill="#7887F9" opacity="1.000000" stroke="none" 
	d="
M226.897125,127.214828 
	C226.898209,171.623703 226.906693,215.560745 226.866379,259.497711 
	C226.864441,261.623199 226.814880,263.883026 226.121948,265.845245 
	C224.726044,269.798157 221.569000,271.530640 217.450317,270.886932 
	C213.568085,270.280212 211.144226,267.832794 210.828842,263.869385 
	C210.552368,260.394653 210.682999,256.885345 210.681488,253.391296 
	C210.663177,211.284973 210.653763,169.178650 210.641922,127.072334 
	C210.641861,126.905907 210.638885,126.739487 210.639328,126.573059 
	C210.660049,118.823662 213.189163,115.154442 218.576508,115.057510 
	C224.123734,114.957710 226.789368,118.702339 226.897125,127.214828 
z"/>
<path fill="#E2E2E2" opacity="1.000000" stroke="none" 
	d="
M45.467445,306.244690 
	C56.914494,306.400299 67.939392,306.067993 78.884048,306.853546 
	C91.180382,307.736145 98.076706,313.440948 99.830910,322.636292 
	C101.896973,333.466370 98.030823,341.119720 87.003471,347.513672 
	C89.094856,350.645386 91.170288,353.767517 93.260757,356.879486 
	C95.261681,359.858154 97.278214,362.826324 99.883644,366.680359 
	C94.895454,366.680359 90.958618,366.895416 87.068604,366.562805 
	C85.721970,366.447662 84.125954,365.238831 83.274986,364.070038 
	C80.437012,360.172150 78.027061,355.959869 75.141968,352.100647 
	C74.209221,350.852966 72.356033,349.672394 70.856491,349.582245 
	C65.728294,349.273956 60.570137,349.464081 54.922432,349.464081 
	C54.922432,355.186249 54.922432,360.608307 54.922432,366.353210 
	C50.682777,366.353210 46.939793,366.353210 42.920143,366.353210 
	C42.775024,365.214417 42.510918,364.099854 42.509171,362.984894 
	C42.481758,345.486938 42.429802,327.988373 42.596001,310.491974 
	C42.609501,309.070496 44.168846,307.663757 45.467445,306.244690 
M80.721947,337.618835 
	C86.236809,334.441864 87.963631,331.141663 87.070992,325.456390 
	C86.272110,320.368378 82.670425,317.809937 78.143494,317.522675 
	C70.448051,317.034332 62.699150,317.388245 55.055538,317.388245 
	C55.055538,324.601044 55.055538,331.521759 55.055538,339.364960 
	C63.542175,338.865479 71.750633,338.382385 80.721947,337.618835 
z"/>
<path fill="#DFDFDF" opacity="1.000000" stroke="none" 
	d="
M409.375885,355.958282 
	C409.270233,351.137451 409.400604,346.786163 409.001129,342.484039 
	C408.461639,336.674622 404.689850,332.354523 399.414612,330.999207 
	C392.771423,329.292511 386.839264,330.925598 381.792511,335.376678 
	C380.944611,336.124512 381.011200,338.137756 381.000488,339.568878 
	C380.934357,348.383087 380.967285,357.198029 380.967285,366.357941 
	C377.100769,366.357941 373.550354,366.357941 369.710205,366.357941 
	C369.710205,351.254852 369.710205,336.344574 369.710205,320.603973 
	C373.867249,322.554352 379.009064,318.019348 381.840149,324.149414 
	C393.316681,318.847107 404.504578,318.138062 415.129791,327.029938 
	C423.116455,321.154999 432.014160,318.957428 441.889801,320.967926 
	C450.833588,322.788727 457.952881,328.943207 458.747681,337.770416 
	C459.591400,347.141296 458.937256,356.647064 458.937256,366.402496 
	C455.617340,366.402496 452.201569,366.402496 448.023621,366.402496 
	C448.023621,359.449310 448.058136,352.529633 448.012817,345.610443 
	C447.975677,339.936920 446.178070,334.959290 440.972748,332.156403 
	C435.406281,329.159088 429.567017,329.593842 424.390015,333.064087 
	C422.689423,334.204010 421.169525,336.901733 421.088562,338.947327 
	C420.733307,347.925079 420.935455,356.924927 420.935455,366.312683 
	C417.152893,366.312683 413.599426,366.312683 409.375854,366.312683 
	C409.375854,363.006256 409.375854,359.727997 409.375885,355.958282 
z"/>
<path fill="#769AF7" opacity="1.000000" stroke="none" 
	d="
M232.056244,174.000000 
	C232.055923,161.841339 232.028244,150.182587 232.066376,138.524048 
	C232.086609,132.335083 235.106873,128.603241 240.052338,128.470840 
	C245.050323,128.337006 248.290985,131.983002 248.298660,138.174774 
	C248.343887,174.649658 248.341675,211.124634 248.303406,247.599548 
	C248.296585,254.084381 244.978500,257.932129 239.885620,257.727417 
	C235.123215,257.536011 232.069458,253.592834 232.064163,247.449905 
	C232.043198,223.133286 232.055984,198.816635 232.056244,174.000000 
z"/>
<path fill="#E0E0E0" opacity="1.000000" stroke="none" 
	d="
M236.988922,367.873352 
	C233.261780,381.524567 225.133423,387.430420 209.623596,386.816650 
	C202.490524,386.534393 195.425537,384.531769 187.484940,383.163727 
	C189.432724,378.759216 190.733505,375.817780 192.168381,372.573090 
	C200.107498,376.311951 208.046570,378.239380 216.465469,376.047516 
	C223.292404,374.270142 226.134323,370.134796 225.794205,364.276642 
	C218.681549,364.896484 211.497879,366.350006 204.425674,365.929382 
	C195.582535,365.403473 189.006241,359.141235 188.188507,350.306580 
	C187.308502,340.799225 187.989624,331.147339 187.989624,321.304810 
	C191.162537,321.304810 194.603851,321.304810 198.795776,321.304810 
	C198.795776,324.181732 198.788986,327.105438 198.797455,330.029114 
	C198.808517,333.857025 198.734589,337.688293 198.867264,341.512238 
	C199.314148,354.393372 208.093063,359.901306 219.975037,354.787537 
	C224.081116,353.020294 226.545044,350.580658 226.183121,345.366821 
	C225.634003,337.456635 226.039551,329.480103 226.039551,321.297485 
	C229.917633,321.297485 233.353607,321.297485 237.030228,321.297485 
	C237.030228,336.678253 237.030228,352.065918 236.988922,367.873352 
z"/>
<path fill="#7874FA" opacity="1.000000" stroke="none" 
	d="
M205.202332,167.000107 
	C205.205460,189.790771 205.210632,212.081451 205.207428,234.372131 
	C205.207184,236.034882 205.248932,237.707123 205.095245,239.358566 
	C204.688446,243.729691 201.462692,246.795731 197.286255,246.900040 
	C193.362335,246.998032 189.681900,243.738968 189.133148,239.590485 
	C188.981445,238.443573 189.052200,237.264816 189.052002,236.100662 
	C189.047318,207.322403 189.046204,178.544144 189.048294,149.765884 
	C189.048370,148.768173 189.010574,147.761688 189.122604,146.774292 
	C189.605606,142.517914 193.034485,139.265244 197.031815,139.212982 
	C201.308853,139.157043 204.924698,142.442596 205.081573,147.040527 
	C205.302704,153.520889 205.178726,160.013016 205.202332,167.000107 
z"/>
<path fill="#E4E4E4" opacity="1.000000" stroke="none" 
	d="
M311.113800,323.272339 
	C315.832886,322.616913 320.408905,321.105530 325.099121,320.538513 
	C341.296021,318.580505 351.901672,327.726990 352.396698,343.952911 
	C352.623688,351.393738 352.435333,358.847260 352.435333,366.423981 
	C348.410950,366.423981 344.988800,366.423981 341.046112,366.423981 
	C341.046112,359.557983 340.943634,352.945831 341.074646,346.338348 
	C341.208160,339.604248 339.230103,334.065063 332.553680,331.442932 
	C325.306152,328.596497 318.433685,330.216858 312.207397,334.432190 
	C311.242889,335.085175 311.067932,337.354889 311.050812,338.882843 
	C310.948730,347.988647 311.000305,357.096161 311.000305,366.436615 
	C307.061768,366.436615 303.637695,366.436615 299.914032,366.436615 
	C299.914032,345.346283 299.914032,324.417297 299.914032,303.105408 
	C303.317749,303.105408 306.876556,303.105408 311.023102,303.105408 
	C311.023102,309.659454 311.023102,316.254395 311.113800,323.272339 
z"/>
<path fill="#E0E0E0" opacity="1.000000" stroke="none" 
	d="
M169.466675,366.300964 
	C165.818558,366.581665 162.535202,366.581665 158.802094,366.581665 
	C158.802094,359.745422 158.815964,353.286102 158.798218,346.826843 
	C158.780334,340.318695 157.400101,334.482178 150.626694,331.654327 
	C143.393555,328.634644 136.569153,330.105286 130.266434,334.188965 
	C129.252228,334.846069 128.836594,337.030548 128.815613,338.518433 
	C128.686798,347.653595 128.751068,356.791534 128.751068,366.314392 
	C124.886665,366.314392 121.340233,366.314392 117.458527,366.314392 
	C117.458527,345.342194 117.458527,324.445892 117.458527,303.133362 
	C120.997467,303.133362 124.687630,303.133362 128.711548,303.133362 
	C128.711548,310.015625 128.711548,316.796814 128.711548,322.510376 
	C136.425797,321.930634 143.953506,320.415924 151.300873,321.036530 
	C162.154160,321.953186 169.378464,330.195068 169.896805,341.083740 
	C170.291534,349.376068 169.882751,357.706665 169.466675,366.300964 
z"/>
<path fill="#77ACF4" opacity="1.000000" stroke="none" 
	d="
M268.116516,153.086563 
	C268.903687,155.445526 269.883148,157.495956 269.893524,159.551285 
	C270.006012,181.829788 269.944916,204.109100 269.986481,226.388092 
	C269.994720,230.803131 268.580261,234.310730 264.144287,235.752533 
	C258.793640,237.491638 253.933868,233.816238 253.700165,227.695206 
	C253.452942,221.220306 253.622421,214.729218 253.622192,208.245209 
	C253.621582,191.951523 253.628922,175.657852 253.630676,159.364166 
	C253.631088,155.633118 254.633041,152.436096 258.359344,150.786697 
	C261.979919,149.184128 265.150299,149.933029 268.116516,153.086563 
z"/>
<path fill="#75D2F0" opacity="1.000000" stroke="none" 
	d="
M296.657898,166.030579 
	C296.725647,162.713989 296.600433,159.871307 296.893372,157.072403 
	C297.331970,152.882034 299.898193,150.469864 304.041718,150.071411 
	C308.473907,149.645233 311.304749,151.936523 312.658020,156.042496 
	C313.010284,157.111237 312.970337,158.336426 312.971039,159.489838 
	C312.985138,181.932419 312.951233,204.375076 313.000061,226.817566 
	C313.009399,231.105118 311.491730,234.445480 307.309387,235.727188 
	C303.461334,236.906494 299.788391,235.867233 297.935120,232.089905 
	C296.901703,229.983643 296.723969,227.300644 296.712219,224.874863 
	C296.617859,205.424957 296.655090,185.974426 296.657898,166.030579 
z"/>
<path fill="#74BEF0" opacity="1.000000" stroke="none" 
	d="
M275.053223,192.000046 
	C275.052887,185.176346 274.975128,178.851379 275.075836,172.529282 
	C275.162354,167.098755 278.825256,163.169983 283.461761,163.278000 
	C288.025238,163.384323 291.435669,166.994598 291.482147,172.387177 
	C291.601196,186.197983 291.609070,200.011658 291.457275,213.821945 
	C291.397766,219.236069 287.935516,222.786728 283.356934,222.830978 
	C278.706512,222.875916 275.149078,218.970078 275.074554,213.467789 
	C274.979919,206.479721 275.052673,199.489380 275.053223,192.000046 
z"/>
<path fill="#DCDCDC" opacity="1.000000" stroke="none" 
	d="
M263.024841,347.000854 
	C263.024841,341.055389 263.024841,335.609528 263.024841,329.809143 
	C259.267731,329.809143 255.999496,329.809143 252.386719,329.809143 
	C252.386719,326.897095 252.386719,324.328094 252.386719,321.258453 
	C255.618515,321.258453 259.021698,321.258453 262.871826,321.258453 
	C262.871826,316.393250 262.871826,311.982941 262.871826,307.279236 
	C266.879822,307.279236 270.448090,307.279236 274.497192,307.279236 
	C274.497192,311.718903 274.497192,316.138000 274.497192,320.905334 
	C278.243927,320.905334 281.522644,320.905334 285.183868,320.905334 
	C285.183868,323.958496 285.183868,326.652222 285.183868,329.774414 
	C281.657562,329.774414 278.401581,329.774414 274.689209,329.774414 
	C274.689209,342.084991 274.689209,353.985535 274.689209,366.298645 
	C270.710419,366.298645 267.184998,366.298645 263.024841,366.298645 
	C263.024841,360.017670 263.024841,353.759094 263.024841,347.000854 
z"/>
<path fill="#7962F9" opacity="1.000000" stroke="none" 
	d="
M183.855194,192.985291 
	C183.840683,196.810852 183.978027,200.150848 183.776398,203.470245 
	C183.467773,208.551071 180.084610,211.938950 175.657852,211.899261 
	C171.218231,211.859451 167.757492,208.422287 167.660843,203.432831 
	C167.509308,195.609756 167.508148,187.777420 167.712051,179.956024 
	C167.846710,174.790939 171.168716,171.564545 175.712143,171.593048 
	C180.291748,171.621780 183.528870,174.872772 183.759735,180.001892 
	C183.946793,184.157776 183.834656,188.327133 183.855194,192.985291 
z"/>
<path fill="#72DBEA" opacity="1.000000" stroke="none" 
	d="
M318.173950,195.941101 
	C318.171173,191.471588 318.086945,187.488083 318.185150,183.509109 
	C318.323120,177.917496 321.747620,174.122314 326.427277,174.191589 
	C331.032562,174.259735 334.225220,177.749466 334.328949,183.203384 
	C334.455109,189.836655 334.464661,196.476639 334.319092,203.109207 
	C334.201172,208.480347 330.821747,211.987411 326.223694,211.904953 
	C321.663177,211.823196 318.421478,208.238800 318.182251,202.898331 
	C318.085846,200.746124 318.171265,198.585785 318.173950,195.941101 
z"/>
<path fill="#212121" opacity="1.000000" stroke="none" 
	d="
M80.340515,337.759064 
	C71.750633,338.382385 63.542175,338.865479 55.055538,339.364960 
	C55.055538,331.521759 55.055538,324.601044 55.055538,317.388245 
	C62.699150,317.388245 70.448051,317.034332 78.143494,317.522675 
	C82.670425,317.809937 86.272110,320.368378 87.070992,325.456390 
	C87.963631,331.141663 86.236809,334.441864 80.340515,337.759064 
z"/>
</svg>