<?xml version="1.0" standalone="no"?>
<!DOCTYPE svg PUBLIC "-//W3C//DTD SVG 20010904//EN"
 "http://www.w3.org/TR/2001/REC-SVG-20010904/DTD/svg10.dtd">
<svg version="1.0" xmlns="http://www.w3.org/2000/svg"
 width="986.000000pt" height="616.000000pt" viewBox="0 0 986.000000 616.000000"
 preserveAspectRatio="xMidYMid meet">

<g transform="translate(0.000000,616.000000) scale(0.100000,-0.100000)"
fill="#000000" stroke="none">
<path d="M5362 5843 c-6 -16 -16 -46 -22 -68 -17 -59 -62 -148 -82 -163 -10
-7 -18 -19 -18 -27 0 -7 -15 -26 -33 -42 -35 -31 -158 -103 -175 -103 -6 0
-23 -5 -39 -12 -15 -6 -30 -12 -33 -13 -77 -29 -92 -49 -45 -61 14 -3 42 -15
62 -25 21 -10 44 -19 52 -19 20 0 149 -76 184 -108 15 -14 27 -31 27 -38 0 -7
8 -19 18 -26 9 -7 26 -33 36 -58 11 -25 28 -64 38 -87 10 -23 18 -46 18 -52 0
-24 25 -61 40 -61 15 0 40 37 40 60 0 5 5 21 12 37 6 15 12 30 13 33 0 3 11
27 23 54 12 27 22 51 22 55 0 3 9 12 20 19 11 7 20 18 20 25 0 32 157 134 243
157 26 7 47 16 47 20 0 4 14 10 30 14 37 7 40 33 5 42 -14 3 -25 9 -25 13 0 4
-24 13 -52 20 -92 23 -248 122 -248 156 0 8 -8 20 -17 27 -21 15 -66 104 -83
163 -22 75 -32 95 -50 95 -10 0 -22 -12 -28 -27z"/>
<path d="M3373 5618 c-6 -7 -16 -35 -23 -63 -7 -27 -22 -66 -32 -85 -10 -19
-18 -40 -18 -47 0 -7 -11 -36 -24 -65 -13 -29 -29 -71 -36 -93 -7 -22 -28 -66
-46 -98 -19 -32 -34 -62 -34 -68 0 -5 -4 -9 -10 -9 -5 0 -16 -15 -25 -34 -20
-41 -184 -202 -220 -216 -14 -5 -25 -14 -25 -20 0 -5 -4 -10 -10 -10 -5 0 -31
-13 -57 -29 -27 -16 -70 -37 -98 -46 -27 -9 -68 -25 -91 -36 -22 -10 -46 -19
-52 -19 -7 0 -29 -7 -50 -17 -20 -9 -66 -26 -102 -38 -56 -19 -65 -26 -68 -49
-3 -20 2 -28 25 -37 15 -7 46 -20 69 -31 22 -10 46 -18 52 -18 7 0 31 -9 55
-19 23 -11 65 -27 92 -36 243 -84 441 -251 555 -469 22 -42 40 -82 40 -89 0
-7 8 -29 19 -49 10 -21 26 -61 35 -90 10 -29 25 -71 35 -93 10 -22 21 -53 25
-70 8 -33 33 -65 51 -65 16 0 50 71 81 170 10 30 23 64 30 75 6 11 20 47 30
80 10 33 20 62 23 65 4 3 17 30 31 60 14 30 28 56 32 58 4 2 16 20 25 40 20
43 214 240 258 262 17 8 32 17 35 20 13 13 91 50 104 50 9 0 16 4 16 8 0 5 33
19 73 32 39 13 77 26 82 30 6 4 35 15 65 24 30 10 80 29 112 44 45 20 55 29
52 45 -5 28 -11 32 -74 52 -30 10 -59 21 -65 25 -5 4 -37 15 -70 25 -33 10
-76 26 -95 37 -19 10 -40 18 -47 18 -16 0 -87 33 -91 43 -2 4 -9 7 -16 7 -7 0
-38 18 -69 40 -30 22 -58 40 -61 40 -3 0 -36 30 -73 67 -129 128 -192 232
-277 453 -20 52 -36 99 -36 103 0 5 -7 25 -16 45 -9 21 -22 52 -30 70 -14 33
-43 43 -61 20z"/>
<path d="M6802 4528 c-11 -24 -28 -68 -37 -98 -24 -74 -72 -178 -101 -217 -13
-17 -24 -34 -24 -38 0 -7 -119 -125 -126 -125 -3 0 -25 -14 -50 -30 -24 -17
-63 -37 -86 -46 -22 -8 -47 -19 -55 -25 -7 -6 -13 -8 -13 -4 0 4 -6 3 -12 -2
-7 -6 -41 -18 -74 -28 -74 -22 -110 -46 -101 -69 4 -9 14 -16 24 -16 10 0 32
-7 48 -16 17 -9 53 -24 80 -34 96 -34 140 -54 183 -82 24 -15 46 -28 50 -28
10 0 142 -133 142 -143 0 -5 13 -27 29 -50 15 -23 32 -53 36 -67 4 -14 11 -29
15 -35 4 -5 19 -44 33 -85 40 -115 56 -150 71 -150 20 0 40 36 66 120 12 41
26 80 30 85 4 6 15 30 24 55 10 24 31 64 47 88 16 24 29 45 29 48 0 7 116 124
123 124 3 0 28 16 57 35 29 19 56 35 61 35 6 0 29 9 52 21 23 11 65 27 92 36
90 27 136 53 133 76 -2 16 -22 27 -98 52 -172 57 -218 80 -303 150 -81 67
-164 171 -189 238 -11 28 -23 57 -27 62 -4 6 -18 44 -31 85 -41 130 -65 149
-98 78z"/>
<path d="M4793 3473 c-12 -27 -28 -68 -34 -93 -7 -25 -16 -47 -20 -50 -4 -3
-14 -28 -22 -57 -9 -29 -22 -67 -30 -85 -27 -61 -68 -143 -95 -193 -30 -55
-211 -242 -257 -265 -17 -8 -32 -18 -35 -22 -11 -14 -138 -75 -192 -92 -31 -9
-74 -26 -94 -37 -21 -10 -45 -19 -54 -19 -9 0 -24 -6 -35 -14 -11 -7 -48 -22
-83 -31 -61 -17 -63 -19 -60 -48 3 -27 9 -32 53 -45 28 -8 52 -17 55 -21 3 -4
28 -13 55 -21 28 -7 68 -21 90 -30 22 -10 56 -23 75 -30 59 -20 200 -92 200
-101 0 -5 7 -9 16 -9 26 0 246 -228 272 -280 12 -25 28 -56 35 -70 28 -51 57
-117 83 -190 82 -233 95 -260 124 -260 11 0 20 7 20 15 0 8 4 15 9 15 4 0 16
28 26 63 9 34 22 71 29 82 7 11 20 45 30 75 9 30 26 74 37 97 10 24 19 49 19
56 0 7 18 41 40 75 22 33 40 66 40 72 0 15 219 234 251 251 14 8 48 25 75 39
27 14 52 30 56 35 5 7 8 7 8 0 0 -6 3 -6 8 1 4 5 30 18 57 28 28 10 68 26 90
35 22 10 63 24 90 31 28 7 55 17 62 23 7 5 32 15 55 22 38 11 43 16 46 44 2
20 -1 31 -10 31 -13 0 -181 62 -233 86 -16 7 -60 23 -97 34 -36 11 -68 24 -70
28 -2 4 -23 17 -48 30 -25 13 -65 35 -90 50 -55 32 -230 205 -230 227 0 8 -4
15 -9 15 -19 0 -117 201 -145 299 -9 29 -20 59 -25 65 -5 6 -19 45 -32 86 -13
41 -29 81 -36 88 -24 25 -48 13 -70 -35z"/>
<path d="M3367 1913 c-4 -3 -7 -12 -7 -18 0 -7 -8 -30 -17 -51 -9 -22 -18 -43
-19 -49 -12 -47 -51 -136 -75 -171 -16 -23 -29 -45 -29 -49 0 -11 -112 -118
-143 -136 -72 -42 -182 -90 -260 -114 -49 -15 -58 -20 -55 -39 2 -15 15 -25
43 -34 22 -7 49 -16 60 -22 11 -5 48 -19 83 -31 34 -12 62 -25 62 -29 0 -4 10
-10 23 -14 84 -21 230 -191 267 -311 6 -22 20 -58 29 -80 10 -22 22 -53 27
-70 13 -42 51 -47 60 -8 4 15 14 44 22 63 9 19 16 40 17 45 0 6 6 21 12 35 7
14 21 45 32 70 33 73 53 102 106 154 71 69 153 122 226 146 35 12 73 26 84 32
11 6 38 17 60 23 28 8 41 18 43 32 3 18 -8 24 -70 43 -40 12 -77 25 -83 30 -5
4 -34 15 -62 24 -29 10 -56 22 -59 28 -4 5 -21 16 -38 23 -37 16 -126 92 -126
108 0 7 -9 18 -20 25 -11 7 -20 18 -20 26 0 7 -9 25 -21 39 -11 15 -27 48 -36
74 -9 27 -20 53 -25 60 -5 7 -7 17 -3 23 3 5 2 10 -3 10 -5 0 -17 27 -26 60
-13 45 -22 60 -35 60 -10 0 -21 -3 -24 -7z"/>
<path d="M6492 1453 c-5 -10 -15 -40 -22 -68 -21 -77 -72 -165 -131 -228 -29
-31 -57 -57 -61 -57 -5 0 -25 -11 -46 -24 -20 -13 -64 -32 -97 -42 -33 -10
-62 -21 -65 -25 -3 -3 -17 -9 -32 -13 -34 -8 -37 -32 -5 -41 12 -4 41 -15 64
-26 24 -10 49 -19 56 -19 30 0 135 -64 185 -113 56 -55 107 -147 139 -252 14
-46 23 -61 39 -63 16 -2 23 4 29 25 3 15 17 52 31 81 13 29 24 58 24 65 0 30
122 187 146 187 4 0 21 11 39 24 17 14 56 32 86 42 30 9 59 21 65 25 6 5 14 6
17 2 4 -3 7 -2 7 4 0 6 14 13 30 17 17 3 30 11 30 19 0 14 -35 31 -140 68
-120 42 -243 156 -280 259 -11 30 -25 64 -30 75 -5 11 -14 37 -21 58 -14 40
-42 50 -57 20z"/>
</g>
</svg>
